# xmcd
#
# Track frame offsets: 
#        183
#        9973
#        20670
#        33488
#        42275
#        54788
#        68138
#        79233
#        90225
#        100533
#        112718
#        122838
#        131450
#        143428
#        156565
#        167525
#        177333
#        189170
#        199780
#        210553
#
# Disc length: 3088 seconds
#
# Revision: 1
# Processed by: cddbd v1.5.2PL0 Copyright (c) Steve Scherf et al.
# Submitted via: ExactAudioCopy v0.99pb4
#
DISCID=f30c0e14
DTITLE=Various Artist - Rhythm' n' Blues Gems [CD1]
DYEAR=1900
DGENRE=
TTITLE0=Benny Spellman/Fortune Teller
TTITLE1=Gene Chandler and The Dukays/Nite Owl
TTITLE2=Jimmy Rogers/Rock This House
TTITLE3=Chris Kenner/I'Like It Like That
TTITLE4=Bo Diddley/Road Runner
TTITLE5=The Rhythm Aces/Hey Mr. DJ
TTITLE6=Dee Clark/Money
TTITLE7=Billy "The Kid" Emerson/ Red Hot
TTITLE8=Jimmy Whiterspoon/I Can Make Love To You
TTITLE9=Dusty Brooks/Heaven Or Fire
TTITLE10=Jimmy Rushing/Wigglin' Blues
TTITLE11=Chuck Berry/Come On
TTITLE12=Rosco Gordon/Every Night In The Week
TTITLE13=Etta James/Next Door To The Blues
TTITLE14=Ernie K-Doe/Make You Love Me
TTITLE15=Buddy Guy/Slop Around
TTITLE16=Wilbert Harrison/Let's Stick Together
TTITLE17=Aaron Neville/Over You
TTITLE18=Fats Domino/Something You Got
TTITLE19=Diamond Joe/Moanin' And Screamin'
EXTD=
EXTT0=
EXTT1=
EXTT2=
EXTT3=
EXTT4=
EXTT5=
EXTT6=
EXTT7=
EXTT8=
EXTT9=
EXTT10=
EXTT11=
EXTT12=
EXTT13=
EXTT14=
EXTT15=
EXTT16=
EXTT17=
EXTT18=
EXTT19=
PLAYORDER=
